<svg id="Capa_1" enable-background="new 0 0 512 512" height="512" viewBox="0 0 512 512" width="512" xmlns="http://www.w3.org/2000/svg"><g><path d="m486 120h-39.894l-93.106-93.106-82.5 82.5v-109.394h-135v57.5h15v-42.5h105v15h-52.5v15h52.5v15h-32.5v15h32.5v45h-105v-47.5h-15v47.5h-25.228l-2.464-19.099c-1.827-14.157-11.331-25.88-24.804-30.596l-17.709-6.198c.132-1.185.205-2.387.205-3.607 0-17.92-14.58-32.5-32.5-32.5s-32.5 14.58-32.5 32.5 14.58 32.5 32.5 32.5c11.385 0 21.415-5.889 27.221-14.776l17.828 6.24c8.083 2.829 13.786 9.863 14.882 18.357l33.316 258.193-22.295 40.131c-4.782 8.608-4.656 18.814.337 27.301 4.994 8.487 13.854 13.554 23.701 13.554h16.644c-6.313 7.418-10.134 17.019-10.134 27.5 0 23.435 19.065 42.5 42.5 42.5s42.5-19.065 42.5-42.5c0-10.481-3.822-20.082-10.134-27.5h185.269c-6.313 7.418-10.134 17.019-10.134 27.5 0 23.435 19.065 42.5 42.5 42.5s42.5-19.065 42.5-42.5c0-10.481-3.822-20.082-10.134-27.5h23.633v-15h-355.01c-4.476 0-8.503-2.303-10.773-6.161s-2.327-8.497-.153-12.41l21.349-38.429h185.742v-15h-26.655v-48h75v48h-33.345v15h112.987l40.159-199.789c11.023-2.813 19.199-12.824 19.199-24.711 0-14.061-11.439-25.5-25.5-25.5zm-453-42c-9.649 0-17.5-7.851-17.5-17.5s7.851-17.5 17.5-17.5 17.5 7.851 17.5 17.5-7.851 17.5-17.5 17.5zm394 364c15.164 0 27.5 12.336 27.5 27.5s-12.336 27.5-27.5 27.5-27.5-12.336-27.5-27.5 12.336-27.5 27.5-27.5zm-250 0c15.164 0 27.5 12.336 27.5 27.5s-12.336 27.5-27.5 27.5-27.5-12.336-27.5-27.5 12.336-27.5 27.5-27.5zm15.5-87h-51.906l-6.193-48h58.099zm0-63h-60.035l-7.097-55h67.132zm0-70h-69.067l-6.581-51h75.648zm90 133h-75v-48h75zm0-63h-75v-55h75zm90 0h-75v-55h75zm0-70h-75v-51h75zm67.357 133h-52.357v-48h62.006zm12.664-63h-65.021v-55h76.076zm21.306-106h-37.827v15h34.812l-4.221 21h-79.091v-51h89.342zm12.173-30h-236.106v15h32.606v51h-75v-51h27.394v-15h-119.977l-2.71-21h241.47v-15h-72.571l71.894-71.894 71.894 71.894h-56.216v15h117.322c5.79 0 10.5 4.71 10.5 10.5s-4.71 10.5-10.5 10.5z"/><path d="m169.5 462h15v15h-15z"/><path d="m419.5 462h15v15h-15z"/><path d="m173 30h15v15h-15z"/><path d="m406 186h15v15h-15z"/></g></svg>