<svg id="Layer_1" enable-background="new 0 0 511 511" height="512" viewBox="0 0 511 511" width="512" xmlns="http://www.w3.org/2000/svg"><g><path d="m503.5 146.197h-496v256h216v16h64v-16h216z" fill="#c9dcf9"/><path d="m23.5 146.197h464v240h-464z" fill="#8fb7f4"/><path d="m39.5 114.197h432v256h-432z" fill="#edab56"/><path d="m255.5 370.197-32-32h-152v-256h152l32 32 32-32h152v256h-152z" fill="#fbef9a"/><path d="m255.5 114.197-16-16v256l16 16 16-16v-256z" fill="#edab56"/><g><path d="m423.5 82.197h16v256h-16z" fill="#edab56"/></g><path d="m295.5 138.197h104v112h-104z" fill="#fff"/><path d="m383.5 138.197h16v112h-16z" fill="#e4e8ed"/><g><g><path d="m307.5 274.697h16v15h-16z" fill="#fff"/></g><g><path d="m371.5 274.697h16v15h-16z" fill="#fff"/></g></g><path d="m399.5 418.197-24-24-24 24v-80h48z" fill="#f95476"/><path d="m351.5 338.197h48v16h-48z" fill="#ec1646"/><g><path d="m479 138.697v-32h-32v-32h-162.606l-28.894 28.893-28.894-28.894h-162.606v32h-32v32h-32v271h216v16h79v-16h32.5v-15h-47.5v16h-49v-16h-216v-241h17v96.5h15v-128.5h17v224h156.394l17 17h-190.394v-96.5h-15v111.5h312v58.606l31.5-31.5 31.5 31.5v-58.606h72v-224h17v241h-72.5v15h87.5v-271h-32zm-400 192v-241h141.394l27.606 27.606v234.787l-21.394-21.394h-147.606zm194.606 32 17-17h53.394v17zm101.894 20.893-16.5 16.5v-54.394h33v54.394zm88.5-20.893h-57v-17h40v-159.5h-15v144.5h-147.606l-21.394 21.393v-234.787l27.606-27.606h141.394v80.5h15v-48.5h17z"/><path d="m103.5 130.697h56v15h-56z"/><path d="m103.5 178.697h120v15h-120z"/><path d="m103.5 210.697h120v15h-120z"/><path d="m103.5 242.697h120v15h-120z"/><path d="m103.5 274.697h120v15h-120z"/><path d="m288 186.197h15v-40.5h89v97h-89v-40.5h-15v55.5h119v-127h-119z"/><path d="m339.5 274.697h16v15h-16z"/></g></g></svg>