<svg id="Capa_1" enable-background="new 0 0 512 512" height="512" viewBox="0 0 512 512" width="512" xmlns="http://www.w3.org/2000/svg"><g><g><g clip-rule="evenodd" fill-rule="evenodd"><path d="m113.501 179.126v-75h-30v15h-30v-15h-30v75zm284.998 0v-75h30v15h30v-15h30v75z" fill="#e8ab4c"/><path d="m38.5 294.501h60.001v-115.375h-60.001zm435 0h-60.001v-115.375h60.001z" fill="#a070ce"/><path d="m166 324.501v-30h-158.5v30zm180 0v-30h158.5v30z" fill="#e8ab4c"/><path d="m76 384.5h60v90h-60zm360 0h-60v90h60zm52.5 120h-142.5v-179.999h142.5zm-464.999 0h142.499v-179.999h-142.499z" fill="#a070ce"/><path d="m76 474.501h60v-90h-60zm300 0h60v-90h-60z" fill="#e8ab4c"/><path d="m166 504.5h30.001v-127.5l59.999-22.499 60 22.499v127.5h30v-269.998h-180z" fill="#a070ce"/><path d="m151 204.502h210v30h-210z" fill="#e8ab4c"/><path d="m165.999 67.5h180.002v137.001h-180.002z" fill="#a070ce"/><path d="m361.001 67.5v-59.999h-30.001v15h-30v-15h-30v15h-30v-15h-30v15h-30.001v-15h-30v59.999z" fill="#e8ab4c"/><path d="m196.001 504.5h59.999 60v-127.5l-60-22.499-59.999 22.499z" fill="#e8ab4c"/><path d="m106.001 104.126h-22.5v22.5h22.5zm292.498 75v-75h15v75zm60-52.5v-22.5h15v22.5zm-412.499-22.5h-22.5v75h22.5z" fill="#df941e"/><path d="m38.5 294.501h22.5v-115.375h-22.5zm389.999 0h-15v-115.375h15z" fill="#6f37a5"/><path d="m30 294.501h-22.5v30h22.5zm316 30v-30h15v30z" fill="#df941e"/><path d="m23.501 504.5h22.499v-179.999h-22.5v179.999zm337.499 0h-15v-179.999h15z" fill="#6f37a5"/><path d="m76 474.501h15v-90h-15zm300 0h15v-90h-15z" fill="#df941e"/><path d="m166 234.502h22.5v269.998h-22.5z" fill="#6f37a5"/><path d="m151 204.502h22.5v30h-22.5z" fill="#df941e"/><path d="m165.999 67.5h22.5v137.001h-22.5z" fill="#6f37a5"/><path d="m353.5 7.501h-22.5v22.5h22.5zm-60 0h-22.5v22.5h22.5zm-60.001 0h-22.499v22.5h22.5v-22.5zm-60 0h-22.5v60h22.5z" fill="#df941e"/><path d="m196.001 504.5h15v-133.124l-15 5.625zm59.999 0h15v-144.375l-15-5.625z" fill="#df941e"/></g><g><path d="m233.5 482h-15v-15h15zm180-60h-15v-15h15zm-300 0h-15v-15h15zm180-15h-15v-15h15zm172.5-44.999h-15v-15h15zm-30 0h-15v-15h15zm-345 0h-15v-15h15zm-30 0h-15v-15h15zm262.501-59.999h-15v-15h15zm0-30.001h-15v-15h15zm143.499-115.375h-15v-15h15zm-405.999 0h-15.001v-15h15.001zm262.5-51.626h-15v-15h15z" fill="#fff"/></g></g><g><path d="m443.5 377h-74.999v105h74.999zm-15 90h-15v-30h-15v30h-14.999v-75h44.999z"/><path d="m68.5 377v105h75v-105zm60 90h-15v-30h-15v30h-15v-75h45z"/><path d="m16.001 410.75h15v71.25h-15z"/><path d="m353.5 287.001v-45h15v-45h-225v45h15v45h-158.5v45h16.001v63.75h15v-63.75h127.499v164.999h-158.5v15h409.75v-15h-56.25v-86.25h-15v86.25h-15.001v-125.197l-67.499-25.312-67.499 25.313v125.196h-15.001v-225.018l32.484-.084 16.308 38.208h24.079v-15h-14.173l-9.923-23.251 33.609-.087-.039-15-82.346.214v-14.98h75v-15h-90v-15h195v15h-90v15h75v153.75h15v-63.75h127.501v150h15v-150h16v-45h-158.5zm-149.999 95.197 44.999-16.875v56.677h15v-56.678l44.999 16.875v114.803h-44.999v-60h-15v60h-44.999zm-188.501-65.197v-15h143.5v15zm482 0h-143.5v-15h143.5z"/><path d="m424.75 497h87.25v15h-87.25z"/><path d="m158.499 182.002h15v-34.624h18.087l23.138-14.969 14.676 49.593h34.102v-15h-22.898l-12.751-43.088 24.989-16.167-8.149-12.594-57.537 37.225h-13.657v-57.378h75.001v-15h-90.001v-45h15v15.001h45.001v-15.001h15v15.001h45v-15.001h15v15.001h45.001v-15.001h15v45h-90.001v15h75.001v107.002h15v-107.002h15v-75h-45v15.001h-15.001v-15.001h-45v15.001h-15v-15.001h-45v15.001h-15.001v-15.001h-45v75h15z"/><path d="m406.999 272.001h15v-85.375h45.001v61.056l-15-16.42v-22.001h-15v27.821l30 32.839v2.08h1.9l.063.069.075-.069h12.962v-85.375h15v-90h-45v15h-15v-15h-45v37.5h15v-22.5h15v15h45v-15h15v60h-75v-22.5h-15v37.5h14.999z"/><path d="m31.001 272.001h15v-43.742l15 16.42v22h15v-27.82l-30-32.84v-19.393h45v85.375h15v-85.375h15v-90h-45v15h-15v-15h-45v37.5h15v-22.5h15v15h45v-15h15v60h-75v-22.5h-15v37.5h15z"/><path d="m261.37 295.106h15v15h-15z"/><path d="m278.502 167.002h15v15h-15z"/></g></g></svg>