<svg id="Capa_1" enable-background="new 0 0 512 512" height="512" viewBox="0 0 512 512" width="512" xmlns="http://www.w3.org/2000/svg"><g><path d="m256 153.313c-111.014 0-201.33 91.487-201.33 203.94 0 54.277 21.197 89.421 64.746 107.356 13.615 26.254 40.405 44.379 71.854 45.859 21.579 1.018 43.302 1.527 65.032 1.527 21.725 0 43.458-.509 65.031-1.527 31.569-1.486 58.451-19.742 72.02-46.162 16.443-6.869 29.356-15.968 39.398-27.762 2.685-3.154 2.305-7.888-.849-10.573-3.155-2.685-7.888-2.305-10.573.848-5.664 6.653-12.487 12.32-20.633 17.123 1.045-4.68 1.732-9.502 1.986-14.448 1.934-37.772 1.574-76.055-1.036-113.842.931-4.945 1.412-10.027 1.412-15.117 0-29.384-15.586-56.844-43.888-77.323-27.57-19.95-64.102-30.936-102.867-30.936-7.917 0-15.736.455-23.213 1.35-18.245 2.123-35.563 6.71-51.471 13.635-21.339 9.286-39.262 22.512-51.829 38.247-13.242 16.58-20.241 35.607-20.241 55.026 0 5.088.48 10.189 1.415 15.17-2.612 37.803-2.973 76.067-1.036 113.789.259 5.065.97 10.001 2.057 14.786-28.77-16.788-42.317-44.863-42.317-87.028 0-104.182 83.587-188.94 186.33-188.94s186.33 84.758 186.33 188.94c0 17.879-2.509 33.504-7.455 46.441-1.479 3.869.457 8.205 4.326 9.684 3.865 1.477 8.204-.457 9.684-4.327 5.604-14.654 8.445-32.082 8.445-51.799.002-112.449-90.314-203.937-201.328-203.937zm64.627 342.173c-42.683 2.014-85.966 2.014-128.651 0-36.373-1.712-65.205-30.412-67.066-66.758-1.304-25.382-1.534-51.013-.743-76.579 3.321.918 6.717 1.398 10.187 1.398 3.404 0 6.875-.443 10.403-1.33 19.67-4.944 37.304-23.256 48.921-38.251 1.919 2.78 4.379 4.638 6.511 5.842 16.61 9.378 40.908-6.189 58.368-20.898 18.59-15.66 37.015-36.714 49.228-56.066 40.948 12.405 71.764 39.138 78.765 71.742 2.702 37.87 3.091 76.27 1.152 114.142-1.869 36.346-30.704 65.046-67.075 66.758zm-179.116-240.615c11.048-13.833 26.987-25.539 46.094-33.854 14.555-6.335 30.441-10.538 47.243-12.493 6.913-.827 14.132-1.247 21.456-1.247 58.935 0 108.957 27.533 125.743 65.38-7.96-9.746-18.023-18.58-29.913-26.129-26.572-16.872-60.605-26.163-95.83-26.163-7.921 0-15.74.455-23.213 1.35-18.247 2.121-35.564 6.706-51.474 13.626-21.182 9.225-38.494 21.938-50.839 36.935 2.721-6.03 6.312-11.868 10.733-17.405zm46.093-5.774c14.553-6.331 30.44-10.53 47.245-12.484 6.909-.827 14.127-1.247 21.455-1.247 12.462 0 24.58 1.255 36.098 3.598-11.325 16.835-27.601 35.073-43.509 48.474-22.37 18.845-36.244 22.18-41.329 19.309-3.083-1.741-2.846-6.6.707-14.442 1.655-3.652.144-7.96-3.43-9.779-3.573-1.818-7.945-.505-9.925 2.982-7.113 12.534-30.646 46.338-53.816 52.162-5.804 1.458-11.177 1.073-16.316-1.179.352-7.365.768-14.721 1.293-22.057 5.882-27.077 28.204-50.826 61.527-65.337z"/><path d="m344.975 374.403c-4.737-.912-9.148-1.247-13.178-1.212 1.226-2.9 1.947-6.321 1.947-9.995 0-10.378-5.666-18.821-12.631-18.821s-12.631 8.443-12.631 18.821c0 5.217 1.433 9.942 3.742 13.354-3.655 1.3-5.773 2.511-6.002 2.646-3.573 2.095-4.799 6.706-2.704 10.279 1.398 2.386 3.899 3.72 6.471 3.72 1.28 0 2.578-.331 3.766-1.027.46-.259 11.438-6.301 28.383-3.035 4.068.782 8-1.878 8.783-5.946s-1.879-8.001-5.946-8.784z"/><path d="m206.388 379.196c-.23-.135-2.348-1.345-6.003-2.645 2.309-3.412 3.742-8.138 3.742-13.354 0-10.378-5.666-18.821-12.631-18.821s-12.631 8.443-12.631 18.821c0 3.674.721 7.094 1.947 9.994-4.03-.035-8.441.3-13.178 1.212-4.067.784-6.729 4.716-5.946 8.783.784 4.068 4.717 6.728 8.783 5.946 16.861-3.248 27.817 2.718 28.376 3.031 1.179.68 2.468 1.004 3.74 1.004 2.574 0 5.081-1.327 6.477-3.708 2.096-3.573.897-8.169-2.676-10.263z"/><path d="m223.279 428.972c-4.136.039-7.453 3.42-7.421 7.556.031 4.122 3.39 7.443 7.506 7.443h.043c4.738-.051 18.292 1.219 24.294 7.22 1.464 1.464 3.384 2.197 5.303 2.197s3.839-.732 5.303-2.197c2.929-2.929 2.929-7.678 0-10.606-11.5-11.503-32.66-11.639-35.028-11.613z"/><path d="m164.83 128.084v-91.33c0-20.264-16.486-36.75-36.75-36.75h-55.11c-4.142 0-7.5 3.358-7.5 7.5s3.358 7.5 7.5 7.5h55.11c11.993 0 21.75 9.757 21.75 21.75v91.33c0 11.993-9.757 21.75-21.75 21.75h-91.33c-11.993 0-21.75-9.757-21.75-21.75v-91.33c0-11.993 9.757-21.75 21.75-21.75h6.22c4.142 0 7.5-3.358 7.5-7.5s-3.358-7.5-7.5-7.5h-6.22c-20.264 0-36.75 16.486-36.75 36.75v91.33c0 20.264 16.486 36.75 36.75 36.75h91.33c20.264-.001 36.75-16.486 36.75-36.75z"/><path d="m475.249.004h-91.328c-20.265 0-36.751 16.486-36.751 36.75v91.329c0 20.264 16.486 36.751 36.751 36.751h91.328c20.265 0 36.751-16.486 36.751-36.751v-91.329c0-20.264-16.486-36.75-36.751-36.75zm21.751 128.079c0 11.993-9.758 21.751-21.751 21.751h-91.328c-11.993 0-21.751-9.757-21.751-21.751v-91.329c0-11.993 9.758-21.75 21.751-21.75h91.328c11.993 0 21.751 9.757 21.751 21.75z"/><path d="m224.115 56.888c4.142 0 7.5-3.358 7.5-7.5 0-1.142.079-2.29.236-3.411 1.703-12.203 12.257-21.224 24.656-20.969 12.712.256 23.186 10.391 23.844 23.072.352 6.767-2.017 13.192-6.668 18.091-4.654 4.902-10.935 7.602-17.683 7.602-4.142 0-7.5 3.358-7.5 7.5v23.341c0 4.142 3.358 7.5 7.5 7.5 4.143 0 7.5-3.358 7.5-7.5v-16.546c8.003-1.528 15.303-5.504 21.061-11.568 7.512-7.911 11.336-18.28 10.771-29.197-1.064-20.497-17.985-36.878-38.522-37.292-19.921-.388-37.061 14.169-39.814 33.894-.252 1.806-.379 3.651-.379 5.483-.002 4.142 3.356 7.5 7.498 7.5z"/><path d="m256 121.041c-4.142 0-7.5 3.358-7.5 7.5v.5c0 4.142 3.358 7.5 7.5 7.5 4.143 0 7.5-3.358 7.5-7.5v-.5c0-4.142-3.357-7.5-7.5-7.5z"/><path d="m121.918 42.916c-2.929-2.929-7.678-2.929-10.606 0l-28.897 28.896-28.896-28.896c-2.929-2.929-7.678-2.929-10.606 0-2.929 2.929-2.929 7.677 0 10.606l28.896 28.896-28.896 28.896c-2.929 2.929-2.929 7.677 0 10.606 1.464 1.465 3.384 2.197 5.303 2.197s3.839-.732 5.303-2.197l28.896-28.896 28.896 28.896c1.464 1.465 3.384 2.197 5.303 2.197s3.839-.732 5.303-2.197c2.929-2.929 2.929-7.677 0-10.606l-28.896-28.895 28.896-28.896c2.93-2.93 2.93-7.678.001-10.607z"/><path d="m470.515 35.501c-3.665-1.935-8.201-.532-10.134 3.13l-37.123 70.301-25.18-32.384c-2.543-3.271-7.255-3.858-10.524-1.317-3.271 2.542-3.859 7.254-1.317 10.524l32.31 41.552c1.428 1.836 3.618 2.896 5.92 2.896.218 0 .438-.01.656-.029 2.537-.223 4.788-1.717 5.977-3.969l42.546-80.572c1.933-3.661.532-8.198-3.131-10.132z"/></g></svg>