<?xml version="1.0" encoding="iso-8859-1"?>
<!-- Generator: Adobe Illustrator 19.0.0, SVG Export Plug-In . SVG Version: 6.00 Build 0)  -->
<svg version="1.1" id="Capa_1" xmlns="http://www.w3.org/2000/svg" xmlns:xlink="http://www.w3.org/1999/xlink" x="0px" y="0px"
	 viewBox="0 0 512 512" style="enable-background:new 0 0 512 512;" xml:space="preserve">
<g>
	<path style="fill:#FFE100;" d="M321.697,466.512l7.04-10.385c10.436-15.42,1.263-36.454-17.143-39.287l-12.928-1.988v-23.629
		l12.322-2.372c12.681-2.441,20.412-13.474,20.403-25.011l-59.187-32.29c-9.993-5.444-16.205-15.915-16.205-27.29V273.07
		c0,0,22.34-26.726,30.865-63.863c7.074-4.565,11.802-12.476,11.802-21.47v-34.133c0-7.509-3.337-14.225-8.533-18.918V85.337
		c0,0,10.138-76.8-93.867-76.8c-103.996,0-93.867,76.8-93.867,76.8v49.348c-5.197,4.693-8.533,11.409-8.533,18.918v34.133
		c0,8.994,4.727,16.905,11.802,21.47c8.525,37.137,30.865,63.863,30.865,63.863v31.189c0,11.375-6.212,21.845-16.205,27.29
		l-76.126,41.532c-21.99,11.989-35.669,35.038-35.669,60.083v36.173h315.989L321.697,466.512z"/>
	<path style="fill:#00DA6C;" d="M401.067,435.2c-18.85,0-34.133-15.283-34.133-34.133s15.283-34.133,34.133-34.133
		s34.133,15.283,34.133,34.133S419.917,435.2,401.067,435.2L401.067,435.2z M491.145,388.847
		c-18.287-3.516-26.667-24.875-15.659-39.893l7.74-10.547l-16.717-16.708l-10.385,7.031c-15.411,10.445-36.454,1.271-39.287-17.135
		l-1.988-12.928h-23.629l-3.055,15.915c-3.439,17.877-24.047,26.419-39.125,16.205l-13.414-9.088l-16.717,16.708l7.74,10.547
		c11.008,15.019,2.628,36.378-15.659,39.893l-12.322,2.372v23.629l12.928,1.988c18.406,2.833,27.58,23.876,17.135,39.287
		l-7.031,10.385l16.708,16.717l10.547-7.74c15.019-11.008,36.378-2.628,39.893,15.659l2.372,12.322h23.629l1.399-9.097
		c2.893-18.807,24.713-27.844,40.064-16.589l7.415,5.444l16.708-16.717l-7.031-10.385c-10.445-15.411-1.271-36.454,17.135-39.287
		l12.928-1.988v-23.629L491.145,388.847z"/>
	<path style="fill:#FFFFFF;" d="M70.736,381.258l67.567-36.855c13.107-7.151,23.834-25.216,23.834-40.141v-17.314
		c0-8.474-2.492-16.708-7.177-23.774c-7.296-11.008-18.278-30.387-23.697-53.965c-7.066-4.565-11.793-12.476-11.793-21.478v-34.133
		c0-7.509,3.337-14.217,8.533-18.918V85.331c0,0-9.199-70.246,81.067-76.331c-4.087-0.273-8.303-0.469-12.8-0.469
		c-104.004,0-93.867,76.8-93.867,76.8v49.348c-5.197,4.702-8.533,11.409-8.533,18.918v34.133c0,9.003,4.727,16.913,11.793,21.478
		c8.525,37.137,30.874,63.855,30.874,63.855v31.198c0,11.375-6.221,21.845-16.205,27.29l-76.126,41.523
		c-21.99,11.998-35.669,35.046-35.669,60.092v36.164h25.6V442.92C34.137,417.218,48.174,393.563,70.736,381.258"/>
	<g>
		<path d="M401.067,375.467c-14.114,0-25.6,11.486-25.6,25.6s11.486,25.6,25.6,25.6s25.6-11.486,25.6-25.6
			S415.181,375.467,401.067,375.467L401.067,375.467z M401.067,443.733c-23.526,0-42.667-19.14-42.667-42.667
			s19.14-42.667,42.667-42.667s42.667,19.14,42.667,42.667S424.593,443.733,401.067,443.733L401.067,443.733z M398.268,494.933
			h9.267l0.282-1.86c1.818-11.802,9.481-21.581,20.523-26.155c11.042-4.574,23.39-3.081,33.007,3.977l1.519,1.109l6.554-6.545
			l-3.089-4.548c-6.545-9.677-7.671-21.854-2.995-32.563c4.676-10.709,14.353-18.167,25.907-19.942l5.692-0.879v-9.259l-5.393-1.041
			c-11.486-2.202-20.881-10.018-25.156-20.89c-4.267-10.88-2.697-23.006,4.216-32.427l3.405-4.651l-6.545-6.545l-4.54,3.081
			c-9.694,6.562-21.862,7.68-32.572,3.012c-10.709-4.676-18.167-14.362-19.942-25.916l-0.87-5.692h-9.267l-1.724,8.994
			c-2.159,11.221-9.754,20.531-20.309,24.909c-10.556,4.369-22.519,3.166-31.983-3.251l-7.578-5.137l-6.545,6.545l3.405,4.642
			c6.912,9.429,8.482,21.555,4.215,32.435c-4.275,10.871-13.67,18.688-25.156,20.89l-5.393,1.041v9.259l5.692,0.879
			c11.554,1.775,21.231,9.233,25.907,19.942c4.676,10.709,3.55,22.886-2.995,32.563l-3.089,4.548l6.554,6.554l4.651-3.405
			c9.404-6.912,21.538-8.491,32.41-4.224c10.88,4.267,18.697,13.67,20.907,25.148L398.268,494.933z M414.848,512h-23.629
			c-4.096,0-7.612-2.901-8.388-6.929l-2.364-12.314c-1.109-5.786-4.89-10.334-10.377-12.484c-5.47-2.142-11.341-1.382-16.085,2.091
			l-10.556,7.74c-3.379,2.483-8.098,2.142-11.076-0.853l-16.708-16.708c-2.893-2.884-3.319-7.424-1.033-10.812l7.031-10.385
			c3.311-4.881,3.849-10.778,1.493-16.171c-2.347-5.393-7.04-9.003-12.868-9.899l-12.919-1.988
			c-4.164-0.649-7.236-4.224-7.236-8.439v-23.629c0-4.087,2.901-7.603,6.921-8.38l12.314-2.372
			c5.794-1.109,10.342-4.89,12.493-10.368c2.159-5.478,1.391-11.349-2.091-16.102l-7.748-10.539
			c-2.492-3.405-2.133-8.115,0.853-11.093l16.717-16.708c2.901-2.884,7.45-3.311,10.829-1.024l13.406,9.088
			c4.77,3.234,10.564,3.806,15.872,1.613c5.316-2.202,8.994-6.707,10.078-12.365l3.055-15.915c0.777-4.019,4.292-6.921,8.388-6.921
			h23.629c4.207,0,7.791,3.072,8.439,7.236l1.988,12.928c0.896,5.82,4.506,10.505,9.899,12.86
			c5.384,2.355,11.281,1.826,16.171-1.493l10.368-7.031c3.396-2.295,7.936-1.852,10.829,1.024l16.717,16.708
			c2.987,2.978,3.345,7.689,0.853,11.093l-7.748,10.547c-3.482,4.745-4.25,10.615-2.091,16.094
			c2.15,5.478,6.699,9.259,12.484,10.368h0.009l12.314,2.372c4.019,0.777,6.921,4.292,6.921,8.38v23.629
			c0,4.215-3.072,7.791-7.236,8.439l-12.919,1.988c-5.828,0.896-10.522,4.506-12.868,9.899c-2.355,5.393-1.818,11.29,1.493,16.171
			l7.031,10.385c2.287,3.388,1.86,7.927-1.033,10.812L469.76,489.25c-2.987,2.995-7.697,3.337-11.085,0.853l-7.415-5.444
			c-4.787-3.499-10.906-4.25-16.384-1.971c-5.487,2.27-9.293,7.125-10.189,12.979l-1.4,9.097
			C422.639,508.928,419.055,512,414.848,512L414.848,512z"/>
		<path d="M17.067,460.8h298.197l6.4-9.455c3.311-4.881,3.849-10.778,1.493-16.171c-2.347-5.393-7.04-9.003-12.868-9.899
			l-12.919-1.988c-4.164-0.649-7.236-4.224-7.236-8.439v-23.629c0-4.087,2.901-7.603,6.921-8.38l12.314-2.372
			c7.185-1.374,11.332-6.528,12.834-11.921l-54.084-29.508c-12.74-6.946-20.651-20.275-20.651-34.782v-31.189
			c0-1.988,0.708-3.934,1.98-5.47c0.213-0.247,21.171-25.737,29.107-60.297c0.495-2.167,1.809-4.053,3.678-5.257
			c4.949-3.2,7.902-8.55,7.902-14.31V153.6c0-4.787-2.031-9.25-5.717-12.578c-1.792-1.621-2.816-3.925-2.816-6.34V85.333
			c0-0.375,0.026-0.742,0.077-1.118c0.026-0.205,2.765-24.226-13.85-43.008c-14.157-16.017-38.238-24.141-71.561-24.141
			c-33.442,0-57.574,8.175-71.714,24.311c-16.623,18.961-13.73,42.598-13.696,42.837c0.051,0.375,0.077,0.742,0.077,1.118v49.348
			c0,2.415-1.024,4.719-2.816,6.34c-3.686,3.328-5.717,7.791-5.717,12.578v34.133c0,5.76,2.953,11.11,7.902,14.31
			c1.869,1.203,3.183,3.089,3.678,5.257c7.936,34.56,28.894,60.049,29.107,60.297c1.271,1.536,1.98,3.482,1.98,5.47v31.189
			c0,14.507-7.91,27.836-20.651,34.782L48.282,380.57c-19.251,10.505-31.215,30.66-31.215,52.599V460.8z M324.514,477.867H8.533
			c-4.719,0-8.533-3.823-8.533-8.533v-36.164c0-28.186,15.369-54.084,40.115-67.584l76.134-41.523
			c7.253-3.959,11.75-11.546,11.75-19.806v-28.228c-5.709-7.484-22.076-30.814-29.892-61.764
			c-8.055-6.468-12.774-16.154-12.774-26.53V153.6c0-8.218,3.063-16.188,8.533-22.4V85.811c-0.486-4.693-2.347-32.64,17.852-55.689
			C129.246,10.129,157.687,0,196.267,0s67.021,10.129,84.548,30.123c20.207,23.049,18.338,50.995,17.852,55.689V131.2
			c5.47,6.212,8.533,14.182,8.533,22.4v34.133c0,10.377-4.719,20.062-12.774,26.53c-7.816,30.95-24.183,54.281-29.892,61.764v28.228
			c0,8.26,4.497,15.846,11.75,19.806l59.187,32.282c2.748,1.502,4.454,4.369,4.454,7.492c0.009,16.299-11.486,30.345-27.332,33.391
			l-5.393,1.041v9.259l5.692,0.879c11.554,1.775,21.231,9.233,25.907,19.942c4.676,10.709,3.55,22.886-2.995,32.563l-3.439,5.069
			c0.887,2.074,0.939,4.454,0.034,6.622C331.076,475.785,327.97,477.867,324.514,477.867L324.514,477.867z"/>
	</g>
</g>
<g>
</g>
<g>
</g>
<g>
</g>
<g>
</g>
<g>
</g>
<g>
</g>
<g>
</g>
<g>
</g>
<g>
</g>
<g>
</g>
<g>
</g>
<g>
</g>
<g>
</g>
<g>
</g>
<g>
</g>
</svg>
