<svg id="Capa_1" enable-background="new 0 0 512.812 512.812" height="512" viewBox="0 0 512.812 512.812" width="512" xmlns="http://www.w3.org/2000/svg"><g><g><g id="XMLID_593_"><g><path d="m190.704 45.101c-4.99-13.42 1.01-28.65 14.19-34.91 3.86-1.83 7.93-2.7 11.94-2.7 10.44 0 20.45 5.88 25.22 15.94l53.61 113.04 60.61 106.08 64.22 17.81c7.08 15.69 7.53 33.58 1.23 49.61l-8.32 21.19c-.72 1.85-.65 3.92.2 5.71l74.63 157.231c2.471 5.205-1.325 11.209-7.087 11.209h-204.203c-3.029 0-5.788-1.744-7.087-4.481l-31.803-66.999c-1.06-2.24-2.93-4.01-5.23-4.95l-7.27-2.98c-31.44-12.88-56.94-37.03-71.51-67.72l-102.99-216.99c-1.83-3.86-2.7-7.93-2.7-11.94 0-10.06 5.46-19.74 14.94-24.72 14.02-7.35 31.34-1.59 38.14 12.7l-12.94-27.26c-1.83-3.86-2.7-7.93-2.7-11.94 0-10.44 5.89-20.45 15.94-25.22 13.92-6.61 30.55-.68 37.16 13.23l-8.24-17.35c-1.83-3.86-2.7-7.93-2.7-11.94 0-10.44 5.89-20.45 15.94-25.22 13.92-6.61 30.56-.68 37.16 13.24l9.65 20.33c.28.76 0 0 0 0z" fill="#ffdfcf"/></g></g><g><path d="m272.616 213.217 17.117 10.052c4.779 2.807 6.873 8.677 4.837 13.833-8.918 22.589-11.99 47.149-8.766 71.596.351 2.66 1.589 8.083 1.622 8.175 5.166 14.639 21.709 21.808 36.056 15.876l102.538-42.397c.596-10.203-1.243-20.499-5.526-29.991l-64.22-17.81-60.61-106.08-8.832-18.623c-12.515 2.993-23.616 10.548-30.989 21.468-5.822 8.632-8.899 18.672-8.899 29.035-.001 18.391 9.842 35.586 25.672 44.866z" fill="#ffcebf"/><path d="m420.494 260.361c7.08 15.69 7.53 33.58 1.23 49.61l-8.32 21.19-50.439 16.764c-23.989 4.965-48.687-14.782-56.751-37.914-5.09-31.02 1.77-62.82 19.22-88.97l-42.69-25.07c-10.2-5.98-15.8-16.68-15.8-27.62 0-6.14 1.77-12.35 5.48-17.85 9.52-14.1 28.4-18.28 42.98-9.53l54.54 32.76c10.23 6.14 18.34 15.26 23.25 26.14z" fill="#ffdfcf"/></g><g><path d="m268.41 419.982c-1.06-2.24-2.93-4.01-5.23-4.95l-7.27-2.98c-31.44-12.88-56.94-37.03-71.51-67.72l-102.99-216.991c-1.83-3.86-2.7-7.93-2.7-11.94 0-4.709 1.202-9.335 3.447-13.434-6.166-1.34-12.817-.606-18.864 2.564-9.48 4.98-14.94 14.66-14.94 24.72 0 4.01.87 8.08 2.7 11.94l102.99 216.99c14.57 30.69 40.07 54.84 71.51 67.72l7.27 2.979c2.3.94 4.17 2.71 5.23 4.95l31.803 66.999c1.299 2.737 4.058 4.481 7.087 4.481h38.392z" fill="#ffcebf"/></g><g fill="#ffcebf"><path d="m138.613 195.538c16.667-7.772 23.817-27.628 15.932-44.241l-37.062-78.087c-1.83-3.86-2.7-7.93-2.7-11.94 0-3.782.793-7.512 2.261-10.957-5.063-.616-10.36.148-15.31 2.499-10.05 4.77-15.94 14.78-15.94 25.22 0 3.863.817 7.781 2.512 11.514z"/><path d="m189.165 171.965c16.667-7.772 23.817-27.628 15.932-44.242l-46.246-97.435c-1.83-3.86-2.7-7.93-2.7-11.94 0-3.234.592-6.437 1.678-9.449-4.64-.332-9.434.494-13.937 2.632-10.05 4.77-15.94 14.78-15.94 25.22 0 3.987.862 8.032 2.67 11.872z"/><path d="m239.791 148.359c16.667-7.772 23.817-27.628 15.932-44.242l-42.073-88.643c-1.144-2.413-1.911-4.918-2.326-7.429-2.176.442-4.335 1.153-6.43 2.146-12.983 6.166-18.991 21.035-14.399 34.305z"/></g></g><g><path d="m500.324 502.094-29.364-61.867c-1.776-3.742-6.249-5.336-9.991-3.56s-5.336 6.249-3.56 9.991l29.364 61.867c1.283 2.704 3.974 4.286 6.781 4.286 1.078 0 2.172-.233 3.21-.727 3.743-1.775 5.337-6.248 3.56-9.99z"/><path d="m457.211 411.258-36.774-77.481 8.271-21.059c6.992-17.803 6.489-38.012-1.379-55.445l-27.295-60.482c-5.565-12.33-14.635-22.527-26.23-29.49l-54.538-32.754c-5.916-3.552-12.405-5.369-18.869-5.603l-26.99-56.908c-1.775-3.743-6.249-5.338-9.99-3.563-3.743 1.774-5.337 6.248-3.563 9.99l25.134 52.995c-7.402 2.79-14.031 7.818-18.775 14.846-6.076 8.999-8.183 20.234-5.781 30.824s9.149 19.816 18.514 25.315l36.043 21.163c-15.426 26.418-21.164 57.233-16.171 87.626.671 4.088 4.531 6.858 8.617 6.185 4.087-.671 6.856-4.529 6.185-8.616-4.806-29.25 1.605-58.938 18.051-83.599 1.145-1.717 1.532-3.829 1.07-5.841-.462-2.011-1.732-3.743-3.512-4.788l-42.688-25.065c-5.892-3.459-9.969-9.034-11.48-15.697s-.238-13.451 3.585-19.114c7.284-10.793 21.733-13.995 32.897-7.29l54.538 32.754c8.965 5.384 15.978 13.268 20.281 22.801l27.295 60.482c6.214 13.77 6.611 29.73 1.089 43.792l-8.32 21.185c-1.478 3.764-1.331 8.017.403 11.669l36.832 77.602c1.283 2.704 3.974 4.286 6.781 4.286 1.078 0 2.172-.233 3.21-.727 3.741-1.777 5.335-6.251 3.559-9.993z"/><path d="m244.832 430.62c-1.872-3.944-5.127-7.028-9.166-8.682l-7.274-2.981c-14.637-5.995-27.906-14.537-39.441-25.388-3.017-2.838-7.763-2.693-10.602.324-2.838 3.017-2.693 7.764.324 10.602 12.876 12.113 27.691 21.648 44.032 28.342l7.275 2.981c.573.234 1.034.672 1.3 1.232l33.925 71.475c1.283 2.704 3.974 4.286 6.781 4.286 1.078 0 2.172-.233 3.21-.727 3.742-1.776 5.336-6.249 3.56-9.991z"/><path d="m160.822 354.963-102.989-216.988c-4.709-9.923-.781-21.695 8.944-26.801 4.961-2.604 10.62-3.062 15.935-1.289 5.313 1.773 9.562 5.535 11.965 10.594l44.628 94.028c1.283 2.704 3.974 4.286 6.781 4.286 1.078 0 2.172-.233 3.21-.727 3.742-1.775 5.336-6.249 3.56-9.991l-57.582-121.322c-4.822-10.159-.479-22.346 9.679-27.168 4.921-2.335 10.457-2.615 15.588-.787 5.131 1.829 9.244 5.546 11.58 10.467l54.849 115.562c1.283 2.704 3.974 4.286 6.781 4.286 1.078 0 2.172-.233 3.21-.727 3.742-1.776 5.336-6.249 3.56-9.991l-63.089-132.922c-2.335-4.921-2.615-10.457-.787-15.589 1.828-5.131 5.545-9.243 10.466-11.579 10.159-4.819 22.347-.479 27.168 9.68l57.684 121.217c1.287 2.696 3.974 4.271 6.774 4.271 1.083 0 2.183-.236 3.226-.733 3.738-1.784 5.322-6.262 3.538-9.999l-47.867-100.534c-3.457-9.727.955-20.72 10.478-25.239 10.16-4.82 22.346-.479 27.167 9.678l10.878 22.937c1.774 3.742 6.248 5.338 9.99 3.563 3.743-1.774 5.337-6.248 3.563-9.99l-10.88-22.94c-8.368-17.63-29.519-25.169-47.15-16.799-6.901 3.275-12.246 8.514-15.705 14.729-9.339-15.16-28.848-21.201-45.295-13.392-8.541 4.054-14.992 11.19-18.165 20.096-2.153 6.045-2.617 12.412-1.428 18.55-7.58-1.634-15.444-.745-22.566 2.635-17.631 8.368-25.167 29.52-16.799 47.15l.55 1.158c-7.642-1.34-15.457-.132-22.468 3.55-16.877 8.861-23.695 29.293-15.522 46.514l102.989 216.988c2.74 5.774 5.915 11.441 9.436 16.846 1.438 2.207 3.84 3.407 6.291 3.407 1.404 0 2.824-.394 4.087-1.217 3.47-2.262 4.451-6.908 2.19-10.378-3.155-4.844-6-9.921-8.453-15.09z"/><path d="m355.254 48.144c23.195 3.194 43.757 15.23 57.9 33.891 14.143 18.66 20.172 41.712 16.978 64.906-.565 4.104 2.303 7.888 6.406 8.453.347.048.692.071 1.033.071 3.688 0 6.903-2.722 7.42-6.478 3.742-27.164-3.32-54.159-19.883-76.014-16.562-21.853-40.644-35.948-67.808-39.689-4.105-.572-7.888 2.304-8.453 6.406-.565 4.104 2.304 7.889 6.407 8.454z"/><path d="m349.217 91.979c11.486 1.582 21.669 7.542 28.672 16.783 7.003 9.24 9.989 20.655 8.408 32.142-.565 4.104 2.303 7.889 6.407 8.453.347.048.691.071 1.032.071 3.688 0 6.903-2.722 7.42-6.478 2.128-15.455-1.889-30.814-11.313-43.249-9.424-12.434-23.125-20.454-38.581-22.582-4.105-.563-7.888 2.303-8.453 6.406-.564 4.104 2.305 7.889 6.408 8.454z"/><path d="m98.195 398.636c-23.007-4.34-42.948-17.382-56.148-36.722-13.2-19.338-18.078-42.659-13.737-65.668.768-4.07-1.909-7.992-5.979-8.761-4.072-.771-7.992 1.909-8.761 5.979-5.084 26.946.629 54.258 16.087 76.906 15.459 22.648 38.812 37.922 65.757 43.005.47.089.938.131 1.398.131 3.535 0 6.683-2.51 7.362-6.11.768-4.07-1.908-7.993-5.979-8.76z"/><path d="m106.399 355.154c-11.394-2.15-21.269-8.608-27.805-18.185-6.537-9.576-8.953-21.125-6.803-32.52.768-4.07-1.909-7.992-5.979-8.761-4.07-.771-7.993 1.909-8.761 5.979-2.892 15.333.359 30.873 9.154 43.76 8.795 12.885 22.082 21.574 37.413 24.468.47.089.938.131 1.399.131 3.535 0 6.682-2.51 7.362-6.11.768-4.071-1.909-7.993-5.98-8.762z"/></g></g></svg>