<svg id="Capa_1" enable-background="new 0 0 512 512" height="512" viewBox="0 0 512 512" width="512" xmlns="http://www.w3.org/2000/svg"><g><path d="m456 191h-72c-8.284 0-15-6.716-15-15v-161c0-8.284 6.716-15 15-15h72c8.284 0 15 6.716 15 15v161c0 8.284-6.716 15-15 15z" fill="#cfdfe6"/><path d="m374.88 96h-237.76l-96.12 63v338c0 8.28 6.72 15 15 15h41l71-22.83 71 22.83h217c8.28 0 15-6.72 15-15v-339.73z" fill="#fff5f5"/><path d="m256 96v416h200c8.28 0 15-6.72 15-15v-339.73l-96.12-61.27z" fill="#cfdfe6"/><path d="m504.06 155.35-240-153c-4.92-3.13-11.2-3.13-16.12 0l-240 153c-4.32 2.76-6.94 7.53-6.94 12.65v72c0 11.764 13.016 19.007 23.03 12.67l231.97-146.91 231.97 146.91c9.914 6.272 23.03-.818 23.03-12.67v-72c0-5.12-2.62-9.89-6.94-12.65z" fill="#f66"/><path d="m487.97 252.67c9.996 6.324 23.03-.883 23.03-12.67v-72c0-5.12-2.62-9.89-6.94-12.65l-240-153c-2.46-1.565-5.26-2.348-8.06-2.348v105.758z" fill="#e62e6b"/><path d="m168 249c-39.15 0-71 31.85-71 71v192h142v-192c0-39.15-31.85-71-71-71z" fill="#9d5015"/><path d="m239 512v-192c0-39.15-31.85-71-71-71v263z" fill="#804111"/><path d="m400 361h-1v-57c0-30.327-24.673-55-55-55s-55 24.673-55 55v57h-1c-8.284 0-15 6.716-15 15s6.716 15 15 15h112c8.284 0 15-6.716 15-15s-6.716-15-15-15z" fill="#ffe278"/><path d="m400 391c8.284 0 15-6.716 15-15s-6.716-15-15-15h-1v-57c0-30.327-24.673-55-55-55v142z" fill="#ffb454"/></g></svg>