<?xml version="1.0" encoding="iso-8859-1"?>
<!-- Generator: Adobe Illustrator 19.0.0, SVG Export Plug-In . SVG Version: 6.00 Build 0)  -->
<svg version="1.1" id="Capa_1" xmlns="http://www.w3.org/2000/svg" xmlns:xlink="http://www.w3.org/1999/xlink" x="0px" y="0px"
	 viewBox="0 0 511.998 511.998" style="enable-background:new 0 0 511.998 511.998;" xml:space="preserve">
<path style="fill:#9EDBF5;" d="M393.493,160.29H45.866c-9.253,0-16.754,7.501-16.754,16.754v118.207
	c0,9.253,7.501,16.754,16.754,16.754h13.127c0.101,15.809-0.284,31.14-6.529,43.972c-3.411,7.009,2.69,14.857,10.343,13.379
	c39.439-7.616,61.118-34.639,66.99-57.351h263.696c9.253,0,16.754-7.501,16.754-16.754V177.044
	C410.248,167.791,402.747,160.29,393.493,160.29z"/>
<path style="opacity:0.12;enable-background:new    ;" d="M55.507,367.777c1.984,1.42,4.536,2.114,7.3,1.58
	c39.439-7.616,61.118-34.639,66.99-57.351h-14.209C110.069,333.354,90.58,358.508,55.507,367.777z M393.493,160.29H88.333
	c4.712,8.828,10.777,17.114,18.194,24.531l121.052,121.052c2.58,2.58,5.494,4.619,8.6,6.133h28.041
	c3.105-1.514,6.02-3.553,8.6-6.133l121.052-121.052c0.743-0.743,1.453-1.506,2.167-2.267v112.698
	c0,9.253-7.501,16.754-16.754,16.754h14.209c9.253,0,16.754-7.501,16.754-16.754V177.044
	C410.248,167.791,402.747,160.29,393.493,160.29z"/>
<path style="fill:#ED6EA4;" d="M222.973,37.418C182.997-2.558,118.131-2.472,78.261,37.674
	C38.48,77.731,39.381,142.739,79.3,182.659l121.052,121.052c12.493,12.493,32.748,12.493,45.241,0l121.052-121.052
	c39.919-39.919,40.82-104.928,1.039-144.985C327.815-2.473,262.949-2.558,222.973,37.418z"/>
<path style="opacity:0.12;enable-background:new    ;" d="M367.685,37.674c-15.599-15.707-35.024-25.281-55.288-28.723
	c11.751,5.02,22.755,12.338,32.319,21.968c39.781,40.057,38.88,105.065-1.039,144.985L222.625,296.955
	c-5.452,5.452-12.382,8.523-19.5,9.217c12.557,9.961,30.861,9.146,42.469-2.462l121.052-121.052
	C406.565,142.739,407.466,77.731,367.685,37.674z"/>
<g>
	<path style="fill:#FFFFFF;" d="M148.209,142.86h-13.264c-4.142,0-7.5-3.357-7.5-7.5s3.358-7.5,7.5-7.5h13.264
		c4.142,0,7.5,3.357,7.5,7.5C155.709,139.503,152.351,142.86,148.209,142.86z"/>
	<path style="fill:#FFFFFF;" d="M311.001,142.86h-13.264c-4.142,0-7.5-3.357-7.5-7.5s3.358-7.5,7.5-7.5h13.264
		c4.142,0,7.5,3.357,7.5,7.5S315.143,142.86,311.001,142.86z"/>
</g>
<path style="fill:#EAEAEA;" d="M466.132,295.252H118.505c-9.253,0-16.754,7.501-16.754,16.754v118.207
	c0,9.253,7.501,16.754,16.754,16.754h263.696c5.872,22.712,27.551,49.735,66.99,57.351c7.653,1.478,13.753-6.371,10.343-13.379
	c-6.245-12.832-6.63-28.163-6.529-43.972h13.127c9.253,0,16.754-7.501,16.754-16.754V312.006
	C482.886,302.753,475.385,295.252,466.132,295.252z"/>
<path style="opacity:0.12;enable-background:new    ;" d="M466.132,295.252h-14.209c9.253,0,16.754,7.501,16.754,16.754v118.207
	c0,9.253-7.501,16.754-16.754,16.754h-13.127c-0.101,15.809,0.284,31.14,6.529,43.972c2.179,4.477,0.467,9.286-3.043,11.798
	c2.24,0.592,4.541,1.123,6.909,1.581c7.653,1.478,13.753-6.371,10.343-13.379c-6.245-12.832-6.63-28.163-6.529-43.972h13.127
	c9.253,0,16.754-7.501,16.754-16.754V312.006C482.886,302.753,475.385,295.252,466.132,295.252z"/>
<path d="M482.886,332.936c4.142,0,7.5-3.357,7.5-7.5v-13.431c0-13.374-10.88-24.254-24.254-24.254h-48.384V177.044
	c0-12.642-9.724-23.05-22.085-24.152c16.198-38.024,10.384-83.303-18.186-115.724c-2.738-3.108-7.478-3.407-10.585-0.669
	c-3.108,2.738-3.407,7.478-0.668,10.585c32.936,37.377,30.792,94.599-4.881,130.271L250.945,287.752H195l-39.899-39.9
	c-2.929-2.928-7.678-2.928-10.607,0c-2.929,2.93-2.929,7.678,0,10.607l29.292,29.292h-55.282c-13.374,0-24.254,10.88-24.254,24.254
	v36.559c-9.517,6.539-20.555,11.052-32.865,13.429c-1.012,0.196-1.633-0.297-1.976-0.744c-0.475-0.619-0.542-1.288-0.201-1.988
	c6.916-14.212,7.393-30.485,7.285-47.303c-0.026-4.123-3.376-7.452-7.5-7.452H45.866c-5.102,0-9.254-4.151-9.254-9.254V177.044
	c0-5.102,4.151-9.254,9.254-9.254h12.149c4.44,7.174,9.764,13.953,15.982,20.172l48.352,48.353c1.464,1.464,3.384,2.196,5.303,2.196
	c1.919,0,3.839-0.732,5.303-2.196c2.929-2.93,2.929-7.678,0-10.607l-48.352-48.352C47.396,140.149,46.938,79.86,83.582,42.96
	C101.444,24.974,125.238,15.044,150.58,15h0.168c25.28,0,49.042,9.842,66.922,27.722c2.929,2.928,7.678,2.928,10.606,0
	c15.413-15.413,34.987-24.805,56.607-27.161c21.001-2.289,42.387,2.554,60.215,13.634c3.519,2.186,8.143,1.108,10.329-2.411
	c2.187-3.519,1.107-8.143-2.411-10.329C332.352,3.612,307.582-2.003,283.258,0.649c-22.287,2.429-43.43,11.766-60.279,26.5
	C202.979,9.585,177.606,0,150.749,0h-0.195C121.196,0.051,93.632,11.554,72.94,32.389c-32.182,32.406-39.687,80.35-22.69,120.401
	h-4.384c-13.373,0-24.254,10.88-24.254,24.254v118.208c0,13.374,10.88,24.254,24.254,24.254h5.615
	c-0.159,12.241-1.181,23.781-5.76,33.19c-2.82,5.793-2.135,12.568,1.786,17.681c3.267,4.26,8.223,6.659,13.448,6.659
	c1.084,0,2.18-0.104,3.274-0.314c10.864-2.098,20.912-5.649,30.021-10.594v64.086c0,13.374,10.88,24.254,24.254,24.254h258.162
	c8.053,22.682,30.554,49.384,71.103,57.216c1.095,0.211,2.19,0.314,3.274,0.314c5.225,0,10.181-2.399,13.447-6.658
	c3.922-5.113,4.607-11.889,1.787-17.683c-4.579-9.41-5.601-20.949-5.759-33.189h5.615c13.374,0,24.254-10.88,24.254-24.254V355.19
	c0-4.142-3.358-7.5-7.5-7.5s-7.5,3.358-7.5,7.5v75.023c0,5.103-4.151,9.254-9.254,9.254h-13.127c-4.124,0-7.473,3.328-7.5,7.452
	c-0.108,16.816,0.368,33.089,7.285,47.302c0.425,0.873,0.125,1.563-0.202,1.989c-0.343,0.447-0.966,0.939-1.975,0.744
	c-37.091-7.163-56.123-32.416-61.151-51.864c-0.856-3.31-3.842-5.623-7.261-5.623H118.504c-5.103,0-9.254-4.151-9.254-9.254V312.006
	c0-5.103,4.151-9.254,9.254-9.254h347.628c5.103,0,9.254,4.151,9.254,9.254v13.431C475.386,329.579,478.744,332.936,482.886,332.936
	z M402.748,287.752H272.159l99.79-99.79c6.211-6.211,11.536-12.992,15.981-20.172h5.564c5.103,0,9.254,4.151,9.254,9.254V287.752z
	 M416.462,397.605H250.199c-4.142,0-7.5,3.357-7.5,7.5c0,4.142,3.358,7.5,7.5,7.5h166.263c4.142,0,7.5-3.358,7.5-7.5
	S420.604,397.605,416.462,397.605z M416.462,363.61H182.489c-4.142,0-7.5,3.357-7.5,7.5c0,4.142,3.358,7.5,7.5,7.5h233.973
	c4.142,0,7.5-3.358,7.5-7.5S420.604,363.61,416.462,363.61z M134.077,104.168v5.958c0,4.143,3.358,7.5,7.5,7.5s7.5-3.357,7.5-7.5
	v-5.958c0-4.143-3.358-7.5-7.5-7.5S134.077,100.025,134.077,104.168z M238.442,117.459c0,2.197-1.788,3.984-3.984,3.984
	c-2.197,0-3.984-1.787-3.984-3.984c0-4.143-3.358-7.5-7.5-7.5s-7.5,3.357-7.5,7.5c0,2.197-1.788,3.984-3.984,3.984
	c-2.197,0-3.984-1.787-3.984-3.984c0-4.143-3.358-7.5-7.5-7.5s-7.5,3.357-7.5,7.5c0,10.468,8.516,18.984,18.984,18.984
	c4.312,0,8.293-1.445,11.484-3.877c3.191,2.432,7.172,3.877,11.484,3.877c10.468,0,18.984-8.517,18.984-18.984
	c0-4.143-3.358-7.5-7.5-7.5C241.8,109.959,238.442,113.316,238.442,117.459z M296.869,104.168v5.958c0,4.143,3.358,7.5,7.5,7.5
	s7.5-3.357,7.5-7.5v-5.958c0-4.143-3.358-7.5-7.5-7.5S296.869,100.025,296.869,104.168z M416.462,329.614H201.896
	c-4.142,0-7.5,3.357-7.5,7.5s3.358,7.5,7.5,7.5h214.565c4.142,0,7.5-3.357,7.5-7.5C423.962,332.972,420.604,329.614,416.462,329.614
	z"/>
<g>
</g>
<g>
</g>
<g>
</g>
<g>
</g>
<g>
</g>
<g>
</g>
<g>
</g>
<g>
</g>
<g>
</g>
<g>
</g>
<g>
</g>
<g>
</g>
<g>
</g>
<g>
</g>
<g>
</g>
</svg>
