<svg id="Capa_1" enable-background="new 0 0 512 512" height="512" viewBox="0 0 512 512" width="512" xmlns="http://www.w3.org/2000/svg"><g><path d="m395.611 186.902 13.965-26.551c111.296 96.207 110.754 211.05 44.036 287.542l43.271 54.107-162.065 10h-11.941c-68.571 0-131.46-37.498-164.124-97.861l26.385-14.277z" fill="#f69"/><path d="m409.577 160.352-13.965 26.551-60.793 61.511v263.586h176.065l-47.271-64.106c77.969-89.392 53.927-230.756-54.036-287.542z" fill="#e6455f"/><path d="m211.117 420h-209.698l52.316-70.949c-34.027-38.407-52.618-87.299-52.618-139.051 0-115.794 94.206-210 210-210s180 94.206 180 210-64.206 210-180 210z" fill="#f6e486"/><path d="m265.898 164.5c-14.04-14.04-36.803-14.04-50.843 0l-3.925 3.925-3.925-3.925c-14.04-14.04-36.803-14.04-50.843 0h-.001c-14.04 14.04-14.04 36.803 0 50.843l54.769 50.688 54.768-50.688c14.041-14.04 14.041-36.803 0-50.843z" fill="#f69"/><path d="m421.13 210c0-115.794-94.206-210-210-210v420c115.795 0 210-94.206 210-210z" fill="#f0ce46"/><path d="m265.898 164.5c-14.04-14.04-36.803-14.04-50.843 0l-3.925 3.925v97.605l54.768-50.688c14.041-14.039 14.041-36.802 0-50.842z" fill="#e6455f"/></g></svg>